<svg xmlns="http://www.w3.org/2000/svg" xmlns:xlink="http://www.w3.org/1999/xlink" width="500" zoomAndPan="magnify" viewBox="0 0 375 374.999991" height="500" preserveAspectRatio="xMidYMid meet" version="1.0"><defs><clipPath id="8b121c0606"><path d="M 160.441406 254.332031 L 215 254.332031 L 215 375 L 160.441406 375 Z M 160.441406 254.332031 " clip-rule="nonzero"/></clipPath><clipPath id="85d6811e76"><path d="M 84.316406 189 L 291 189 L 291 292.34375 L 84.316406 292.34375 Z M 84.316406 189 " clip-rule="nonzero"/></clipPath><clipPath id="0721e55e50"><path d="M 84.316406 189 L 291 189 L 291 232.214844 L 84.316406 232.214844 Z M 84.316406 189 " clip-rule="nonzero"/></clipPath><clipPath id="8f0b6f8db9"><path d="M 84.316406 0 L 291 0 L 291 196.96875 L 84.316406 196.96875 Z M 84.316406 0 " clip-rule="nonzero"/></clipPath></defs><path fill="#f2c192" d="M 203.289062 269.140625 C 203.300781 284.214844 203.640625 299.105469 204.308594 313.804688 C 204.996094 328.5 204.65625 342.824219 203.289062 356.769531 C 192.761719 367.824219 182.320312 368.289062 171.972656 358.164062 C 171.503906 354.800781 171.304688 350.347656 171.367188 344.8125 L 172.351562 269.140625 Z M 210.882812 355.828125 C 211.175781 352.3125 211.339844 348.253906 211.375 343.640625 L 212.128906 257.785156 L 163.472656 257.785156 L 163.964844 340.097656 C 164 344.785156 164.101562 348.945312 164.269531 352.582031 C 164.410156 355.273438 164.601562 357.222656 164.832031 358.429688 C 165.023438 358.742188 165.199219 359.042969 165.363281 359.335938 C 170.1875 368.570312 177.59375 372.832031 187.574219 372.125 C 195.863281 372.066406 202.839844 368.757812 208.5 362.203125 C 209.261719 361.175781 209.96875 360.054688 210.617188 358.847656 L 210.882812 355.828125 " fill-opacity="1" fill-rule="nonzero"/><path fill="#f6e8b4" d="M 204.308594 313.804688 C 203.640625 299.105469 203.300781 284.214844 203.289062 269.140625 L 172.351562 269.140625 L 171.367188 344.8125 C 171.304688 350.347656 171.503906 354.800781 171.972656 358.164062 C 182.320312 368.289062 192.761719 367.824219 203.289062 356.769531 C 204.65625 342.824219 204.996094 328.5 204.308594 313.804688 " fill-opacity="1" fill-rule="nonzero"/><path fill="#84d4b0" d="M 287.863281 193.957031 L 269.808594 193.765625 C 262.351562 193.359375 257.828125 195.425781 256.25 199.953125 L 278.761719 199.953125 L 278.269531 237.5625 C 278.183594 238.269531 277.867188 240.820312 277.328125 245.222656 C 276.8125 249.628906 273.980469 251.828125 268.828125 251.824219 C 263.703125 251.847656 260.617188 254.351562 259.570312 259.332031 C 259.253906 260.617188 259.003906 261.542969 258.816406 262.121094 C 258.492188 263.378906 258.027344 264.410156 257.421875 265.214844 C 256.691406 266.222656 255.832031 266.789062 254.851562 266.914062 C 253.894531 267.089844 252.960938 266.863281 252.054688 266.234375 C 251.222656 265.65625 250.582031 264.875 250.128906 263.894531 C 249.78125 263.167969 249.441406 262.4375 249.109375 261.710938 C 248.804688 261 248.210938 259.050781 247.332031 255.863281 C 246.445312 252.675781 236.425781 251.152344 217.265625 251.296875 C 198.109375 251.464844 179.058594 251.640625 160.113281 251.824219 C 152.109375 251.917969 144.402344 252.128906 136.992188 252.464844 C 133.738281 253.929688 132.074219 259.980469 132.007812 270.609375 C 130.914062 280.894531 127.449219 284.378906 121.621094 281.058594 C 121.335938 280.71875 121.070312 280.339844 120.824219 279.925781 C 120.070312 278.617188 119.519531 277.296875 119.164062 275.96875 C 118.804688 274.644531 118.058594 270.582031 116.933594 263.78125 C 115.816406 256.976562 112.453125 252.953125 106.847656 251.710938 C 101.265625 250.476562 98.746094 245.644531 99.296875 237.226562 L 98.425781 199.953125 L 222.367188 199.953125 C 220.585938 195.617188 217.839844 193.351562 214.128906 193.164062 L 87.660156 191.84375 C 88 208.804688 88.175781 225.78125 88.1875 242.769531 C 88.183594 250.988281 92.324219 255.804688 100.617188 257.21875 C 106.460938 258.667969 109.875 262.539062 110.851562 268.835938 C 110.976562 269.484375 111.089844 270.164062 111.191406 270.875 C 111.671875 274.46875 112.125 277.046875 112.554688 278.609375 C 113.335938 281.425781 114.492188 283.664062 116.03125 285.324219 C 118.09375 287.460938 120.800781 288.742188 124.148438 289.171875 C 126.894531 289.597656 129.285156 289.285156 131.328125 288.226562 C 133.039062 287.320312 134.4375 285.875 135.519531 283.890625 C 136.453125 282.179688 137.09375 280.203125 137.449219 277.964844 C 137.671875 276.609375 137.851562 274.546875 137.976562 271.777344 C 138.101562 269.015625 138.277344 266.953125 138.503906 265.59375 C 138.832031 263.457031 139.546875 261.621094 140.65625 260.085938 C 141.46875 258.972656 142.390625 258.203125 143.414062 257.785156 L 233.207031 257.785156 C 239.589844 257.734375 243.480469 259.78125 244.878906 263.933594 C 245.089844 264.453125 245.328125 265.03125 245.59375 265.667969 C 246.226562 267.003906 246.855469 268.082031 247.484375 268.914062 C 248.871094 270.75 250.734375 271.945312 253.074219 272.496094 C 255.46875 273.074219 257.59375 272.785156 259.457031 271.628906 C 261.476562 270.347656 263.046875 268.121094 264.179688 264.953125 C 264.394531 264.335938 264.582031 263.773438 264.75 263.253906 C 265.496094 259.246094 267.800781 257.421875 271.660156 257.785156 C 273.597656 257.640625 275.335938 257.328125 276.875 256.839844 C 283.007812 255.824219 286.132812 249.0625 286.242188 236.546875 C 286.921875 224.488281 287.410156 212.292969 287.714844 199.953125 C 287.785156 197.960938 287.835938 195.957031 287.863281 193.957031 " fill-opacity="1" fill-rule="nonzero"/><path fill="#f363b6" d="M 252.28125 186.976562 C 251.710938 187.507812 251.167969 188.136719 250.660156 188.863281 C 249.347656 190.722656 248.503906 192.890625 248.125 195.351562 C 247.945312 196.605469 247.867188 198.136719 247.898438 199.953125 C 247.925781 200.65625 247.964844 201.394531 248.011719 202.179688 C 248.238281 205.726562 248.34375 208 248.316406 209.007812 C 248.265625 211.597656 247.863281 213.886719 247.105469 215.875 C 246.199219 218.238281 244.839844 220.011719 243.027344 221.191406 C 241.996094 221.820312 240.898438 222.210938 239.742188 222.363281 C 238.507812 222.535156 237.375 222.398438 236.34375 221.945312 C 233.394531 220.738281 231.59375 217.6875 230.9375 212.78125 C 230.914062 212.605469 230.601562 209.902344 229.996094 204.671875 C 229.808594 202.925781 229.566406 201.355469 229.277344 199.953125 C 229.054688 198.726562 228.789062 197.636719 228.484375 196.671875 C 227.578125 193.878906 226.195312 191.519531 224.328125 189.578125 C 223.261719 188.460938 222.113281 187.59375 220.890625 186.976562 L 98.160156 186.976562 C 97.929688 162.683594 97.652344 145.90625 97.332031 136.65625 C 95.460938 85.132812 104.765625 50.605469 125.246094 33.066406 C 140.375 18.035156 162.628906 10.824219 191.898438 10.972656 C 216.023438 11.097656 235.535156 19.363281 251.007812 30.246094 C 275.867188 53.734375 285.464844 103.730469 279.515625 186.976562 Z M 279.105469 56.945312 C 278.253906 54.65625 277.320312 52.371094 276.308594 50.078125 C 275.390625 48.292969 274.425781 46.554688 273.398438 44.875 C 264.472656 30.203125 251.84375 19.566406 235.507812 12.957031 C 222.136719 7.050781 206.234375 3.667969 187.800781 2.808594 C 169.378906 3.675781 153.472656 7.0625 140.09375 12.957031 C 129.792969 17.132812 120.964844 22.902344 113.609375 30.273438 C 96.292969 46.683594 87.488281 75.265625 87.207031 116.019531 C 87.023438 141.855469 87.175781 167.128906 87.660156 191.84375 L 214.128906 193.164062 C 217.839844 193.351562 220.585938 195.617188 222.367188 199.953125 C 223.679688 203.183594 224.460938 207.554688 224.707031 213.082031 C 225.5625 222.640625 229.414062 228.007812 236.265625 229.1875 C 248.683594 230.648438 255.140625 223.933594 255.644531 209.046875 C 255.667969 207.636719 255.65625 206.167969 255.605469 204.632812 C 255.558594 202.855469 255.773438 201.296875 256.25 199.953125 C 257.828125 195.425781 262.351562 193.359375 269.808594 193.765625 L 287.863281 193.957031 C 287.925781 191.632812 287.980469 189.308594 288.015625 186.976562 C 288.480469 157.695312 287.960938 127.628906 286.46875 96.78125 C 286.492188 87.472656 285.285156 78.167969 282.84375 68.867188 C 281.824219 64.894531 280.578125 60.921875 279.105469 56.945312 " fill-opacity="1" fill-rule="nonzero"/><path fill="#f68bc1" d="M 171.554688 162.378906 C 171.554688 162.15625 171.570312 161.929688 171.59375 161.703125 L 204.496094 161.703125 C 204.496094 161.929688 204.496094 162.15625 204.496094 162.378906 C 204.496094 166.933594 202.886719 170.804688 199.664062 174 C 196.464844 177.21875 192.585938 178.828125 188.027344 178.828125 C 183.46875 178.828125 179.578125 177.21875 176.355469 174 C 173.15625 170.804688 171.554688 166.933594 171.554688 162.378906 Z M 256.472656 172.566406 C 252.847656 172.566406 249.75 171.800781 247.183594 170.265625 C 244.636719 168.757812 243.367188 166.921875 243.367188 164.757812 C 243.367188 162.597656 244.636719 160.746094 247.183594 159.214844 C 249.75 157.703125 252.847656 156.949219 256.472656 156.949219 C 260.101562 156.949219 263.1875 157.703125 265.730469 159.214844 C 268.296875 160.746094 269.582031 162.597656 269.582031 164.757812 C 269.582031 166.921875 268.296875 168.757812 265.730469 170.265625 C 263.1875 171.800781 260.101562 172.566406 256.472656 172.566406 Z M 247.257812 126.582031 L 257.269531 121.339844 L 252.28125 132.242188 C 253.515625 134.554688 254.132812 137.121094 254.132812 139.933594 C 254.132812 144.460938 252.535156 148.324219 249.335938 151.515625 C 246.136719 154.710938 242.269531 156.308594 237.738281 156.308594 C 233.207031 156.308594 229.339844 154.710938 226.140625 151.515625 C 222.945312 148.324219 221.34375 144.460938 221.34375 139.933594 C 221.34375 135.410156 222.945312 131.550781 226.140625 128.355469 C 229.339844 125.164062 233.207031 123.5625 237.738281 123.5625 C 241.339844 123.5625 244.515625 124.570312 247.257812 126.582031 Z M 250.660156 188.863281 C 251.167969 188.136719 251.710938 187.507812 252.28125 186.976562 L 279.515625 186.976562 C 285.464844 103.730469 276.007812 50.367188 251.148438 26.878906 C 235.675781 16 215.929688 8.746094 191.804688 8.621094 C 162.535156 8.472656 140.375 18.035156 125.246094 33.066406 C 104.765625 50.605469 95.460938 85.132812 97.332031 136.65625 C 97.652344 145.90625 97.929688 162.683594 98.160156 186.976562 L 220.890625 186.976562 C 222.113281 187.59375 223.261719 188.460938 224.328125 189.578125 C 226.195312 191.519531 227.578125 193.878906 228.484375 196.671875 C 228.789062 197.636719 229.054688 198.726562 229.277344 199.953125 C 229.566406 201.355469 229.808594 202.925781 229.996094 204.671875 C 230.601562 209.902344 230.914062 212.605469 230.9375 212.78125 C 231.59375 217.6875 233.394531 220.738281 236.34375 221.945312 C 237.375 222.398438 238.507812 222.535156 239.742188 222.363281 C 240.898438 222.210938 241.996094 221.820312 243.027344 221.191406 C 244.839844 220.011719 246.199219 218.238281 247.105469 215.875 C 247.863281 213.886719 248.265625 211.597656 248.316406 209.007812 C 248.34375 208 248.238281 205.726562 248.011719 202.179688 C 247.964844 201.394531 247.925781 200.65625 247.898438 199.953125 C 247.867188 198.136719 247.945312 196.605469 248.125 195.351562 C 248.503906 192.890625 249.347656 190.722656 250.660156 188.863281 " fill-opacity="1" fill-rule="nonzero"/><path fill="#ee37a4" d="M 171.59375 161.703125 C 171.570312 161.929688 171.554688 162.15625 171.554688 162.378906 C 171.554688 166.933594 173.15625 170.804688 176.355469 174 C 179.578125 177.21875 183.46875 178.828125 188.027344 178.828125 C 192.585938 178.828125 196.464844 177.21875 199.664062 174 C 202.886719 170.804688 204.496094 166.933594 204.496094 162.378906 C 204.496094 162.15625 204.496094 161.929688 204.496094 161.703125 L 171.59375 161.703125 " fill-opacity="1" fill-rule="nonzero"/><path fill="#e34387" d="M 247.183594 170.265625 C 249.75 171.800781 252.847656 172.566406 256.472656 172.566406 C 260.101562 172.566406 263.1875 171.800781 265.730469 170.265625 C 268.296875 168.757812 269.582031 166.921875 269.582031 164.757812 C 269.582031 162.597656 268.296875 160.746094 265.730469 159.214844 C 263.1875 157.703125 260.101562 156.949219 256.472656 156.949219 C 252.847656 156.949219 249.75 157.703125 247.183594 159.214844 C 244.636719 160.746094 243.367188 162.597656 243.367188 164.757812 C 243.367188 166.921875 244.636719 168.757812 247.183594 170.265625 " fill-opacity="1" fill-rule="nonzero"/><path fill="#bfe9d6" d="M 255.605469 204.632812 C 255.65625 206.167969 255.667969 207.636719 255.644531 209.046875 C 255.140625 223.933594 248.683594 230.648438 236.265625 229.1875 C 229.414062 228.007812 225.5625 222.640625 224.707031 213.082031 C 224.460938 207.554688 223.679688 203.183594 222.367188 199.953125 L 98.425781 199.953125 L 99.296875 237.226562 C 98.746094 245.644531 101.265625 250.476562 106.847656 251.710938 C 112.453125 252.953125 115.816406 256.976562 116.933594 263.78125 C 118.058594 270.582031 118.804688 274.644531 119.164062 275.96875 C 119.519531 277.296875 120.070312 278.617188 120.824219 279.925781 C 121.070312 280.339844 121.335938 280.71875 121.621094 281.058594 C 127.449219 284.378906 130.914062 280.894531 132.007812 270.609375 C 132.074219 259.980469 133.738281 253.929688 136.992188 252.464844 C 144.402344 252.128906 152.109375 251.917969 160.113281 251.824219 C 179.058594 251.640625 198.109375 251.464844 217.265625 251.296875 C 236.425781 251.152344 246.445312 252.675781 247.332031 255.863281 C 248.210938 259.050781 248.804688 261 249.109375 261.710938 C 249.441406 262.4375 249.78125 263.167969 250.128906 263.894531 C 250.582031 264.875 251.222656 265.65625 252.054688 266.234375 C 252.960938 266.863281 253.894531 267.089844 254.851562 266.914062 C 255.832031 266.789062 256.691406 266.222656 257.421875 265.214844 C 258.027344 264.410156 258.492188 263.378906 258.816406 262.121094 C 259.003906 261.542969 259.253906 260.617188 259.570312 259.332031 C 260.617188 254.351562 263.703125 251.847656 268.828125 251.824219 C 273.980469 251.828125 276.8125 249.628906 277.328125 245.222656 C 277.867188 240.820312 278.183594 238.269531 278.269531 237.5625 L 278.761719 199.953125 L 256.25 199.953125 C 255.773438 201.296875 255.558594 202.855469 255.605469 204.632812 " fill-opacity="1" fill-rule="nonzero"/><path fill="#9e1663" d="M 174.519531 164.515625 C 174.925781 167.390625 176.191406 169.859375 178.34375 172.011719 C 181.046875 174.707031 184.210938 176.015625 188.027344 176.015625 C 191.839844 176.015625 194.992188 174.710938 197.664062 172.019531 C 199.847656 169.851562 201.121094 167.386719 201.535156 164.515625 Z M 188.027344 181.640625 C 182.714844 181.640625 178.117188 179.738281 174.363281 175.988281 C 170.632812 172.261719 168.738281 167.683594 168.738281 162.378906 C 168.738281 162.050781 168.757812 161.722656 168.796875 161.390625 C 168.957031 159.964844 170.160156 158.890625 171.59375 158.890625 L 204.496094 158.890625 C 206.054688 158.890625 207.3125 160.148438 207.3125 161.703125 L 207.3125 162.378906 C 207.3125 167.691406 205.40625 172.273438 201.644531 175.996094 C 197.929688 179.734375 193.34375 181.640625 188.027344 181.640625 " fill-opacity="1" fill-rule="nonzero"/><g clip-path="url(#8b121c0606)"><path fill="#a4591d" d="M 185.464844 375.015625 C 175.480469 375.015625 167.902344 370.210938 162.925781 360.710938 C 162.75 360.421875 162.578125 360.125 162.40625 359.820312 C 162.257812 359.5625 162.152344 359.285156 162.09375 358.988281 C 161.816406 357.632812 161.609375 355.585938 161.453125 352.734375 C 161.289062 349.054688 161.1875 344.820312 161.148438 340.117188 L 160.65625 257.800781 C 160.648438 256.246094 161.902344 254.980469 163.457031 254.972656 C 164.996094 254.917969 166.28125 256.214844 166.289062 257.769531 L 166.78125 340.082031 C 166.816406 344.707031 166.917969 348.875 167.078125 352.457031 C 167.21875 355.089844 167.394531 356.59375 167.535156 357.449219 C 167.621094 357.597656 167.707031 357.742188 167.796875 357.886719 C 167.824219 357.9375 167.851562 357.984375 167.878906 358.035156 C 172.164062 366.253906 178.542969 369.957031 187.390625 369.316406 C 187.453125 369.316406 187.515625 369.3125 187.574219 369.3125 C 195.03125 369.261719 201.15625 366.367188 206.296875 360.46875 C 206.855469 359.699219 207.382812 358.867188 207.875 357.988281 C 207.957031 357.230469 208.03125 356.433594 208.09375 355.613281 C 208.09375 355.609375 208.09375 355.605469 208.09375 355.601562 C 208.371094 352.167969 208.523438 348.140625 208.558594 343.625 C 208.558594 343.621094 208.558594 343.613281 208.558594 343.613281 L 209.3125 257.757812 C 209.324219 256.214844 210.582031 254.972656 212.128906 254.972656 C 212.136719 254.972656 212.144531 254.972656 212.152344 254.972656 C 213.710938 254.988281 214.957031 256.257812 214.945312 257.808594 L 214.1875 343.664062 C 214.15625 348.3125 213.996094 352.480469 213.707031 356.050781 C 213.621094 357.136719 213.527344 358.171875 213.414062 359.160156 C 213.375 359.511719 213.269531 359.855469 213.101562 360.167969 C 212.394531 361.492188 211.613281 362.742188 210.773438 363.882812 C 210.726562 363.941406 210.683594 364.003906 210.628906 364.058594 C 204.460938 371.191406 196.75 374.851562 187.703125 374.9375 C 186.945312 374.988281 186.199219 375.015625 185.464844 375.015625 " fill-opacity="1" fill-rule="nonzero"/></g><path fill="#fef5fb" d="M 233.960938 194.960938 C 233.382812 192.75 232.667969 190.765625 231.808594 189.003906 L 226.332031 189.003906 C 224.917969 188.890625 223.683594 188.839844 222.628906 188.851562 C 224.894531 191.691406 226.667969 195.453125 227.957031 200.128906 C 228.710938 202.847656 229.265625 206.996094 229.617188 212.582031 C 229.753906 214.757812 230.132812 216.832031 230.75 218.804688 C 231.390625 220.804688 232.261719 222.328125 233.359375 223.367188 C 234.445312 224.410156 235.957031 225.0625 237.890625 225.332031 C 239.824219 225.59375 241.449219 225.332031 242.761719 224.539062 C 241.460938 224.484375 240.265625 223.765625 239.175781 222.386719 C 238.109375 221.03125 237.214844 218.621094 236.492188 215.144531 C 235.769531 211.671875 235.304688 207.976562 235.097656 204.054688 C 234.917969 200.15625 234.539062 197.125 233.960938 194.960938 " fill-opacity="1" fill-rule="nonzero"/><path fill="#fef5fb" d="M 133.027344 28.160156 C 123.988281 31.261719 116.179688 37.4375 109.605469 46.683594 C 101.039062 58.371094 96.28125 75.433594 95.328125 97.875 C 94.03125 128.351562 93.945312 157.394531 95.0625 185.015625 L 104.054688 185.015625 C 104.460938 184.570312 104.574219 181.226562 104.394531 174.980469 C 104.214844 168.769531 104.328125 147.609375 104.734375 111.492188 C 105.171875 75.371094 114.605469 47.59375 133.027344 28.160156 " fill-opacity="1" fill-rule="nonzero"/><path fill="#ffffff" d="M 105.714844 198.484375 L 95.59375 198.484375 C 95.84375 202.933594 96.019531 206.089844 96.121094 207.949219 C 96.574219 218.261719 96.738281 228.8125 96.609375 239.601562 C 96.335938 243.371094 96.664062 246.480469 97.59375 248.921875 C 100.339844 251.230469 103.160156 252.214844 106.058594 251.863281 L 106.058594 210.96875 C 105.527344 206.566406 105.414062 202.40625 105.714844 198.484375 " fill-opacity="1" fill-rule="nonzero"/><path fill="#ffffff" d="M 254.335938 257.960938 C 254.335938 257.582031 254.359375 257.203125 254.410156 256.828125 L 247.496094 256.828125 C 247.777344 257.496094 248.394531 259.671875 249.347656 263.355469 C 249.480469 263.824219 249.632812 264.253906 249.800781 264.636719 C 252.058594 268.265625 254.8125 269.320312 258.074219 267.808594 C 257.351562 267.816406 256.65625 267.476562 255.996094 266.789062 C 255.335938 266.128906 254.957031 265.199219 254.863281 263.996094 C 254.792969 262.792969 254.691406 261.582031 254.558594 260.375 C 254.433594 259.175781 254.355469 258.371094 254.335938 257.960938 " fill-opacity="1" fill-rule="nonzero"/><path fill="#fef5fb" d="M 277.789062 80.003906 C 274.5625 60.992188 267.859375 46.03125 254.636719 35.21875 C 247.472656 28.835938 236.261719 20.882812 225.699219 19.722656 C 256.417969 38.445312 273.984375 75.363281 276.734375 122.027344 C 279.789062 113.921875 280.140625 99.914062 277.789062 80.003906 " fill-opacity="1" fill-rule="nonzero"/><path fill="#ffffff" d="M 116.140625 272.609375 C 116.367188 280.027344 118.859375 283.972656 123.332031 284.453125 C 124.335938 284.539062 125.402344 284.40625 126.527344 284.050781 C 123.941406 281.640625 122.578125 279.144531 122.445312 276.550781 C 122.316406 273.992188 122.070312 270.433594 121.738281 265.863281 C 121.410156 261.308594 120.707031 257.71875 119.597656 255.105469 L 110.578125 254.652344 C 110.578125 254.652344 115.691406 257.949219 116.140625 272.609375 " fill-opacity="1" fill-rule="nonzero"/><path fill="#e34387" d="M 112.589844 165.738281 C 112.589844 167.902344 113.863281 169.738281 116.40625 171.246094 C 118.976562 172.78125 122.070312 173.546875 125.699219 173.546875 C 129.324219 173.546875 132.410156 172.78125 134.953125 171.246094 C 137.519531 169.738281 138.808594 167.902344 138.808594 165.738281 C 138.808594 163.574219 137.519531 161.730469 134.953125 160.191406 C 132.410156 158.683594 129.324219 157.929688 125.699219 157.929688 C 122.070312 157.929688 118.976562 158.683594 116.40625 160.191406 C 113.863281 161.730469 112.589844 163.574219 112.589844 165.738281 " fill-opacity="1" fill-rule="nonzero"/><path fill="#681c51" d="M 138.390625 123.753906 C 134.789062 123.753906 131.617188 124.761719 128.875 126.769531 L 118.863281 121.527344 L 123.847656 132.429688 C 122.613281 134.742188 121.996094 137.308594 121.996094 140.125 C 121.996094 144.652344 123.597656 148.511719 126.792969 151.707031 C 129.992188 154.898438 133.859375 156.496094 138.390625 156.496094 C 142.925781 156.496094 146.789062 154.898438 149.988281 151.707031 C 153.1875 148.511719 154.785156 144.652344 154.785156 140.125 C 154.785156 135.597656 153.1875 131.738281 149.988281 128.546875 C 146.789062 125.347656 142.925781 123.753906 138.390625 123.753906 " fill-opacity="1" fill-rule="nonzero"/><path fill="#ffffff" d="M 136.617188 140.464844 C 137.597656 139.507812 138.089844 138.339844 138.089844 136.953125 C 138.089844 135.574219 137.597656 134.390625 136.617188 133.410156 C 135.660156 132.453125 134.488281 131.976562 133.105469 131.976562 C 131.71875 131.976562 130.53125 132.453125 129.550781 133.410156 C 128.59375 134.390625 128.117188 135.574219 128.117188 136.953125 C 128.117188 138.339844 128.59375 139.507812 129.550781 140.464844 C 130.53125 141.445312 131.71875 141.933594 133.105469 141.933594 C 134.488281 141.933594 135.660156 141.445312 136.617188 140.464844 " fill-opacity="1" fill-rule="nonzero"/><path fill="#681c51" d="M 257.269531 121.339844 L 247.257812 126.582031 C 244.515625 124.570312 241.339844 123.5625 237.738281 123.5625 C 233.207031 123.5625 229.339844 125.164062 226.140625 128.355469 C 222.945312 131.550781 221.34375 135.410156 221.34375 139.933594 C 221.34375 144.460938 222.945312 148.324219 226.140625 151.515625 C 229.339844 154.710938 233.207031 156.308594 237.738281 156.308594 C 242.269531 156.308594 246.136719 154.710938 249.335938 151.515625 C 252.535156 148.324219 254.132812 144.460938 254.132812 139.933594 C 254.132812 137.121094 253.515625 134.554688 252.28125 132.242188 L 257.269531 121.339844 " fill-opacity="1" fill-rule="nonzero"/><path fill="#ffffff" d="M 234.589844 140.617188 C 235.609375 139.628906 236.117188 138.414062 236.117188 136.972656 C 236.117188 135.53125 235.609375 134.304688 234.589844 133.289062 C 233.601562 132.300781 232.382812 131.804688 230.945312 131.804688 C 229.5 131.804688 228.273438 132.300781 227.253906 133.289062 C 226.265625 134.304688 225.769531 135.53125 225.769531 136.972656 C 225.769531 138.414062 226.265625 139.628906 227.253906 140.617188 C 228.273438 141.632812 229.5 142.140625 230.945312 142.140625 C 232.382812 142.140625 233.601562 141.632812 234.589844 140.617188 " fill-opacity="1" fill-rule="nonzero"/><g clip-path="url(#85d6811e76)"><path fill="#339e70" d="M 126.425781 292.167969 C 125.550781 292.167969 124.648438 292.09375 123.714844 291.949219 C 119.808594 291.453125 116.511719 289.875 114.003906 287.277344 C 112.125 285.246094 110.734375 282.597656 109.839844 279.355469 C 109.371094 277.648438 108.902344 274.996094 108.402344 271.246094 C 108.308594 270.609375 108.203125 269.972656 108.085938 269.367188 C 107.269531 264.121094 104.722656 261.164062 100.050781 259.96875 C 90.441406 258.296875 85.367188 252.347656 85.375 242.769531 C 85.359375 225.902344 85.179688 208.785156 84.84375 191.898438 C 84.8125 190.347656 86.050781 189.0625 87.605469 189.03125 C 89.140625 188.972656 90.445312 190.234375 90.476562 191.789062 C 90.8125 208.707031 90.992188 225.859375 91.003906 242.769531 C 91 249.65625 94.117188 253.257812 101.109375 254.445312 C 101.175781 254.457031 101.246094 254.472656 101.316406 254.492188 C 108.226562 256.207031 112.488281 261.019531 113.636719 268.40625 C 113.75 268.996094 113.871094 269.714844 113.980469 270.472656 C 114.441406 273.953125 114.875 276.429688 115.269531 277.863281 C 115.925781 280.226562 116.875 282.09375 118.097656 283.414062 C 119.675781 285.046875 121.789062 286.035156 124.507812 286.382812 C 126.742188 286.726562 128.523438 286.511719 130.03125 285.730469 C 131.234375 285.09375 132.226562 284.050781 133.046875 282.546875 C 133.820312 281.125 134.363281 279.4375 134.664062 277.53125 C 134.878906 276.261719 135.042969 274.292969 135.160156 271.652344 C 135.296875 268.746094 135.480469 266.613281 135.726562 265.132812 C 136.117188 262.597656 137.007812 260.332031 138.371094 258.441406 C 139.503906 256.890625 140.839844 255.796875 142.347656 255.179688 C 142.6875 255.042969 143.050781 254.972656 143.414062 254.972656 L 233.207031 254.972656 C 242.714844 254.871094 246.234375 259.246094 247.511719 262.957031 L 248.167969 264.523438 C 248.703125 265.652344 249.230469 266.554688 249.730469 267.214844 C 250.722656 268.527344 252.027344 269.355469 253.722656 269.757812 C 255.402344 270.164062 256.75 270 257.972656 269.242188 C 259.414062 268.324219 260.617188 266.558594 261.527344 264.007812 L 262.039062 262.542969 C 263.074219 257.332031 266.574219 254.570312 271.667969 254.960938 C 273.300781 254.832031 274.773438 254.5625 276.046875 254.171875 C 276.164062 254.136719 276.285156 254.105469 276.410156 254.085938 C 280.96875 253.320312 283.328125 247.410156 283.421875 236.519531 C 283.421875 236.476562 283.429688 236.433594 283.429688 236.390625 C 284.101562 224.425781 284.605469 212.144531 284.917969 199.882812 C 284.976562 197.882812 285.027344 195.890625 285.070312 193.894531 C 285.101562 192.34375 286.386719 191.0625 287.945312 191.144531 C 289.5 191.175781 290.734375 192.460938 290.699219 194.015625 C 290.65625 196.027344 290.609375 198.03125 290.550781 200.039062 C 290.234375 212.324219 289.730469 224.640625 289.058594 236.636719 C 288.921875 250.503906 285.046875 258.226562 277.527344 259.601562 C 275.839844 260.101562 273.9375 260.433594 271.871094 260.589844 C 271.710938 260.601562 271.554688 260.601562 271.394531 260.585938 C 269.359375 260.390625 268.070312 260.855469 267.535156 263.78125 C 267.511719 263.921875 267.472656 264.0625 267.425781 264.199219 L 266.839844 265.878906 C 265.488281 269.65625 263.519531 272.378906 260.976562 274 C 258.425781 275.582031 255.550781 275.992188 252.414062 275.230469 C 249.441406 274.527344 247.019531 272.972656 245.234375 270.605469 C 244.484375 269.617188 243.769531 268.390625 243.050781 266.867188 C 243.03125 266.832031 243.015625 266.792969 243 266.757812 L 242.277344 265.03125 C 242.253906 264.96875 242.230469 264.910156 242.207031 264.847656 C 241.59375 263.015625 240.015625 260.597656 233.449219 260.597656 C 233.375 260.597656 233.304688 260.597656 233.226562 260.597656 L 144.082031 260.597656 C 143.691406 260.847656 143.304688 261.230469 142.933594 261.742188 C 142.089844 262.910156 141.550781 264.3125 141.285156 266.019531 C 141.074219 267.292969 140.910156 269.261719 140.789062 271.910156 C 140.65625 274.8125 140.472656 276.945312 140.222656 278.429688 C 139.828125 280.949219 139.074219 283.246094 137.996094 285.234375 C 136.648438 287.703125 134.847656 289.546875 132.648438 290.710938 C 130.773438 291.679688 128.691406 292.167969 126.425781 292.167969 " fill-opacity="1" fill-rule="nonzero"/></g><path fill="#ffffff" d="M 180.964844 275.136719 L 174.050781 275.136719 L 173.988281 356.046875 C 175.960938 359.914062 179.441406 362.222656 181.152344 361.328125 L 180.964844 275.136719 " fill-opacity="1" fill-rule="nonzero"/><g clip-path="url(#0721e55e50)"><path fill="#a4315d" d="M 239.429688 232.195312 C 238.308594 232.195312 237.148438 232.125 235.9375 231.984375 C 235.886719 231.976562 235.835938 231.96875 235.785156 231.960938 C 230.128906 230.984375 223.121094 226.960938 221.902344 213.332031 C 221.898438 213.289062 221.894531 213.25 221.894531 213.207031 C 221.664062 208.03125 220.945312 203.929688 219.753906 201.015625 C 217.996094 196.714844 215.660156 196.070312 214.039062 195.976562 L 87.628906 194.65625 C 86.078125 194.640625 84.828125 193.367188 84.84375 191.816406 C 84.859375 190.261719 86.125 189.042969 87.691406 189.03125 L 214.160156 190.351562 C 214.195312 190.355469 214.234375 190.355469 214.273438 190.355469 C 217.625 190.527344 222.207031 192.144531 224.972656 198.886719 C 226.417969 202.441406 227.25 207.023438 227.519531 212.894531 C 228.503906 223.679688 233.191406 225.789062 236.671875 226.410156 C 241.523438 226.964844 245.128906 226.160156 247.695312 223.953125 C 250.859375 221.242188 252.582031 216.191406 252.828125 208.953125 C 252.851562 207.648438 252.839844 206.210938 252.792969 204.722656 C 252.738281 202.589844 253.007812 200.675781 253.59375 199.019531 C 254.984375 195.023438 258.941406 190.378906 269.902344 190.957031 L 287.914062 191.140625 C 289.472656 191.160156 290.71875 192.433594 290.699219 193.984375 C 290.683594 195.53125 289.425781 196.769531 287.886719 196.769531 C 287.875 196.769531 287.863281 196.769531 287.855469 196.769531 L 269.78125 196.578125 C 269.738281 196.578125 269.699219 196.578125 269.65625 196.578125 C 260.566406 196.089844 259.324219 199.691406 258.90625 200.878906 C 258.546875 201.902344 258.386719 203.132812 258.421875 204.558594 C 258.472656 206.121094 258.484375 207.652344 258.460938 209.09375 C 258.15625 218.019531 255.773438 224.441406 251.371094 228.21875 C 248.289062 230.867188 244.28125 232.195312 239.429688 232.195312 " fill-opacity="1" fill-rule="nonzero"/></g><g clip-path="url(#8f0b6f8db9)"><path fill="#641d54" d="M 287.886719 196.769531 C 287.863281 196.769531 287.847656 196.769531 287.824219 196.769531 C 286.269531 196.734375 285.035156 195.449219 285.070312 193.894531 C 285.117188 191.578125 285.160156 189.257812 285.199219 186.929688 C 285.660156 157.839844 285.148438 127.550781 283.675781 96.914062 C 283.671875 96.871094 283.671875 96.824219 283.671875 96.777344 C 283.683594 87.753906 282.492188 78.601562 280.136719 69.574219 C 279.132812 65.710938 277.898438 61.792969 276.460938 57.921875 C 275.648438 55.738281 274.746094 53.507812 273.78125 51.289062 C 272.902344 49.597656 271.964844 47.925781 270.992188 46.335938 C 262.429688 32.261719 250.136719 21.910156 234.453125 15.566406 C 221.410156 9.804688 205.765625 5.621094 187.800781 5.625 C 169.847656 5.632812 154.199219 9.816406 141.226562 15.53125 C 131.253906 19.574219 122.65625 25.199219 115.609375 32.277344 C 98.886719 48.109375 90.300781 76.269531 90.023438 116.039062 C 89.84375 141.75 89.992188 167.234375 90.476562 191.789062 C 90.503906 193.34375 89.269531 194.625 87.714844 194.65625 C 87.695312 194.65625 87.675781 194.65625 87.65625 194.65625 C 86.128906 194.65625 84.875 193.433594 84.84375 191.898438 C 84.363281 167.292969 84.207031 141.757812 84.390625 116 C 84.679688 74.644531 93.859375 45.121094 111.675781 28.253906 C 119.203125 20.691406 128.425781 14.648438 139.03125 10.351562 C 152.59375 4.375 167.140625 0.886719 185.828125 0.0117188 C 185.917969 0.00390625 187.84375 0 187.929688 0.00390625 C 207.546875 0.257812 223.019531 4.363281 236.648438 10.386719 C 253.398438 17.160156 266.601562 28.285156 275.804688 43.414062 C 276.859375 45.140625 277.875 46.949219 278.828125 48.785156 C 278.855469 48.84375 278.882812 48.898438 278.910156 48.957031 C 279.929688 51.296875 280.882812 53.652344 281.742188 55.964844 C 283.246094 60.015625 284.539062 64.117188 285.585938 68.160156 C 288.058594 77.625 289.308594 87.234375 289.304688 96.714844 C 290.78125 127.445312 291.292969 157.832031 290.832031 187.023438 C 290.796875 189.359375 290.75 191.691406 290.699219 194.015625 C 290.667969 195.546875 289.410156 196.769531 287.886719 196.769531 " fill-opacity="1" fill-rule="nonzero"/></g></svg>